<svg
  xmlns="http://www.w3.org/2000/svg"
  viewBox="0 0 24 24"
  fill="currentColor"
>
  <path d="M12 0.297c-6.63 0-12 5.373-12 12 
    0 5.303 3.438 9.8 8.205 11.385.6.113.82-.258.82-.577
    0-.285-.01-1.04-.015-2.04-3.338.724-4.042-1.61-4.042-1.61
    -.546-1.385-1.333-1.754-1.333-1.754-1.089-.744.084-.729.084-.729
    1.205.084 1.84 1.236 1.84 1.236 1.07 1.835 2.809 1.305 3.495.998
    .108-.776.417-1.305.76-1.604-2.665-.304-5.466-1.334-5.466-5.93
    0-1.31.465-2.381 1.235-3.221-.135-.303-.54-1.523.105-3.176
    0 0 1.005-.322 3.3 1.23a11.52 11.52 0 0 1 3.003-.404
    c1.018.005 2.045.138 3.003.404 2.28-1.552 3.285-1.23 3.285-1.23
    .645 1.653.24 2.873.12 3.176.765.84 1.23 1.911 1.23 3.221
    0 4.61-2.805 5.625-5.475 5.92.43.372.81 1.096.81 2.22
    0 1.604-.015 2.896-.015 3.286 0 .315.21.69.825.57
    C20.565 22.092 24 17.592 24 12.297c0-6.627-5.373-12-12-12Z" />
</svg>
